HIERARCHY
ROOT SpineBase
{
  OFFSET 0.000000 0.000000 0.000000
  CHANNELS 6 Xposition Yposition Zposition Zrotation Xrotation Yrotation
  JOINT SpineMid
  {
    OFFSET 0.000000 31.430845 0.000000
    CHANNELS 3 Zrotation Xrotation Yrotation
    JOINT SpineShoulder
    {
      OFFSET -0.008776 23.648439 -1.524500
      CHANNELS 3 Zrotation Xrotation Yrotation
      JOINT Neck
      {
        OFFSET -0.094501 7.820962 -0.723620
        CHANNELS 3 Zrotation Xrotation Yrotation
        JOINT Head
        {
          OFFSET -7.824067 12.370669 0.645888
          CHANNELS 3 Zrotation Xrotation Yrotation
          End Site
          {
            OFFSET 0 0 0
          }
        }
      }
      JOINT ShoulderLeft
      {
        OFFSET -7.585824 -7.991644 11.756335
        CHANNELS 3 Zrotation Xrotation Yrotation
        JOINT ElbowLeft
        {
          OFFSET -3.179642 -30.182856 -1.812928
          CHANNELS 3 Zrotation Xrotation Yrotation
          JOINT WristLeft
          {
            OFFSET -4.650208 -23.463078 0.428377
            CHANNELS 3 Zrotation Xrotation Yrotation
            JOINT HandLeft
            {
              OFFSET 2.370415 -4.892133 0.384285
              CHANNELS 3 Zrotation Xrotation Yrotation
              JOINT HandTipLeft
              {
                OFFSET -0.047458 -4.213752 -2.673767
                CHANNELS 3 Zrotation Xrotation Yrotation
                End Site
                {
                  OFFSET 0 0 0
                }
              }
              JOINT ThumbLeft
              {
                OFFSET -1.084478 -0.344015 2.209320
                CHANNELS 3 Zrotation Xrotation Yrotation
                End Site
                {
                  OFFSET 0 0 0
                }
              }
            }
          }
        }
      }
      JOINT ShoulderRight
      {
        OFFSET 7.564728 -2.313858 -12.603632
        CHANNELS 3 Zrotation Xrotation Yrotation
        JOINT ElbowRight
        {
          OFFSET 2.879969 -24.350660 -7.138173
          CHANNELS 3 Zrotation Xrotation Yrotation
          JOINT WristRight
          {
            OFFSET -5.051735 -25.199180 -3.833117
            CHANNELS 3 Zrotation Xrotation Yrotation
            JOINT HandRight
            {
              OFFSET -2.323959 -7.459939 0.065036
              CHANNELS 3 Zrotation Xrotation Yrotation
              JOINT HandTipRight
              {
                OFFSET -2.017686 -6.719697 -0.310214
                CHANNELS 3 Zrotation Xrotation Yrotation
                End Site
                {
                  OFFSET 0 0 0
                }
              }
              JOINT ThumbRight
              {
                OFFSET -3.895384 -1.546336 -2.157521
                CHANNELS 3 Zrotation Xrotation Yrotation
                End Site
                {
                  OFFSET 0 0 0
                }
              }
            }
          }
        }
      }
    }
  }
  JOINT HipLeft
  {
    OFFSET -4.128907 0.334426 2.686331
    CHANNELS 3 Zrotation Xrotation Yrotation
    JOINT KneeLeft
    {
      OFFSET 2.623080 -45.157532 2.777514
      CHANNELS 3 Zrotation Xrotation Yrotation
      JOINT AnkleLeft
      {
        OFFSET 14.010520 -26.998431 -18.463459
        CHANNELS 3 Zrotation Xrotation Yrotation
        JOINT FootLeft
        {
          OFFSET 9.113304 -6.489766 -2.609800
          CHANNELS 3 Zrotation Xrotation Yrotation
          End Site
          {
            OFFSET 0 0 0
          }
        }
      }
    }
  }
  JOINT HipRight
  {
    OFFSET 2.473858 1.760382 -9.283344
    CHANNELS 3 Zrotation Xrotation Yrotation
    JOINT KneeRight
    {
      OFFSET 4.900008 -38.973672 -6.099422
      CHANNELS 3 Zrotation Xrotation Yrotation
      JOINT AnkleRight
      {
        OFFSET 7.417861 -34.645676 1.592418
        CHANNELS 3 Zrotation Xrotation Yrotation
        JOINT FootRight
        {
          OFFSET -9.885458 -3.893351 -8.448018
          CHANNELS 3 Zrotation Xrotation Yrotation
          End Site
          {
            OFFSET 0 0 0
          }
        }
      }
    }
  }
}
MOTION
Frames: 16
Frame Time: 0.033333
84.758748 78.959726 341.402310 -0.000000 0.000000 61.117799 -0.000000 0.000000 -61.117799 -0.000000 0.000000 0.000000 -0.000000 0.000000 0.000000 0.000000 0.000000 0.000000 -0.000000 0.000000 0.000000 -0.000000 0.000000 0.000000 -0.000000 0.000000 0.000000 -0.000000 0.000000 0.000000 0.000000 0.000000 0.000000 0.000000 0.000000 0.000000 -0.000000 0.000000 0.000000 -0.000000 0.000000 0.000000 -0.000000 0.000000 0.000000 -0.000000 0.000000 0.000000 0.000000 0.000000 0.000000 0.000000 0.000000 0.000000 -0.000000 0.000000 -61.117799 -0.000000 0.000000 0.000000 -0.000000 0.000000 0.000000 0.000000 0.000000 0.000000 -0.000000 0.000000 -61.117799 -0.000000 0.000000 0.000000 -0.000000 0.000000 0.000000 0.000000 0.000000 0.000000
84.616787 78.994267 341.883791 -0.180049 -0.673956 60.810176 0.676182 0.171498 -60.812247 -0.000000 0.000000 0.000000 -0.000000 0.000000 0.000000 0.000000 0.000000 0.000000 -0.000000 0.000000 0.000000 -0.000000 0.000000 0.000000 -0.958348 0.458066 0.151160 0.810539 -6.889732 0.007750 0.000000 0.000000 0.000000 0.000000 0.000000 0.000000 -0.000000 0.000000 0.000000 -0.000000 0.000000 0.000000 1.458722 -4.218470 1.386183 -1.924471 1.390890 -0.368660 0.000000 0.000000 0.000000 0.000000 0.000000 0.000000 0.676182 0.171498 -60.812247 -0.000000 0.000000 0.000000 -15.532138 4.554436 16.032117 0.000000 0.000000 0.000000 1.528730 0.426354 -60.737842 -0.194444 -0.868310 -0.080326 -0.000000 0.000000 0.000000 0.000000 0.000000 0.000000
84.500897 79.027593 342.272827 -0.321742 -1.209157 60.517453 1.210939 0.314968 -60.524177 -0.000000 0.000000 0.000000 -0.000000 0.000000 0.000000 0.000000 0.000000 0.000000 -0.000000 0.000000 0.000000 -0.000000 0.000000 0.000000 -1.875789 0.679652 0.194722 1.508484 -13.663786 0.158894 0.000000 0.000000 0.000000 0.000000 0.000000 0.000000 -0.000000 0.000000 0.000000 -0.000000 0.000000 0.000000 2.583871 -7.353090 2.498168 -3.135241 2.631341 -0.620337 0.000000 0.000000 0.000000 0.000000 0.000000 0.000000 2.151412 0.701623 -60.466124 -0.127257 -1.008824 -0.067517 -34.919707 3.910212 35.870943 0.000000 0.000000 0.000000 2.746123 0.793652 -60.394714 -0.342504 -1.571119 -0.149013 -0.000000 0.000000 0.000000 0.000000 0.000000 0.000000
84.411078 79.059704 342.569419 -0.425087 -1.605659 60.241537 1.604935 0.427813 -60.253486 -0.000000 0.000000 0.000000 -0.000000 0.000000 0.000000 0.000000 0.000000 0.000000 0.553612 0.848949 -0.126798 -0.551793 -0.850133 0.118602 -2.746392 0.663498 0.123108 2.124098 -20.117118 0.448407 0.000000 0.000000 0.000000 0.000000 0.000000 0.000000 -0.000000 0.000000 0.000000 -0.000000 0.000000 0.000000 3.371357 -9.556914 3.322563 -3.735914 3.636598 -0.827239 0.000000 0.000000 0.000000 0.000000 0.000000 0.000000 2.853867 0.958427 -60.180491 -0.160879 -1.347318 -0.089995 -48.570664 -0.810190 49.690990 0.000000 0.000000 0.000000 3.653971 1.095663 -60.084324 -0.443718 -2.108788 -0.204572 -0.000000 0.000000 0.000000 0.000000 0.000000 0.000000
84.347331 79.090599 342.773567 -0.490075 -1.863538 59.984113 1.858821 0.507681 -60.000320 -0.000000 0.000000 0.000000 -0.000000 0.000000 0.000000 0.000000 0.000000 0.000000 0.692347 1.061089 -0.159795 -0.689504 -1.062939 0.146988 -3.566098 0.410478 -0.069612 2.688129 -26.054878 0.879893 0.000000 0.000000 0.000000 0.000000 0.000000 0.000000 -0.000000 0.000000 0.000000 -0.000000 0.000000 0.000000 3.823155 -10.950141 3.857030 -3.791841 4.384963 -1.033863 0.000000 0.000000 0.000000 0.000000 0.000000 0.000000 3.309345 1.146771 -59.919109 -0.174307 -1.575316 -0.104550 -55.178165 -4.561408 56.130707 0.000000 0.000000 0.000000 4.254169 1.326974 -59.803522 -0.497762 -2.481886 -0.245936 -0.000000 0.000000 0.000000 0.000000 0.000000 0.000000
84.309656 79.120279 342.885271 -0.516683 -1.982818 59.746739 1.973155 0.552450 -59.765193 -0.000000 0.000000 0.000000 -0.000000 0.000000 0.000000 0.000000 0.000000 0.000000 0.808870 1.239093 -0.187888 -0.804992 -1.241615 0.170419 -4.332745 -0.076498 -0.387548 3.230055 -31.320615 1.464477 0.000000 0.000000 0.000000 0.000000 0.000000 0.000000 -0.000000 0.000000 0.000000 -0.000000 0.000000 0.000000 3.941851 -11.611933 4.103811 -3.332585 4.880083 -1.263042 0.000000 0.000000 0.000000 0.000000 0.000000 0.000000 3.519032 1.262901 -59.681135 -0.410147 -2.436750 -0.342440 -56.952801 -5.805236 58.502374 0.000000 0.000000 0.000000 4.548521 1.482866 -59.550342 -0.504447 -2.691034 -0.272449 -0.000000 0.000000 0.000000 0.000000 0.000000 0.000000
84.297231 79.147273 342.871411 -0.501717 -1.894677 59.530250 1.887486 0.528132 -59.547246 -0.000000 0.000000 0.000000 -0.000000 0.000000 0.000000 0.000000 0.000000 0.000000 0.838100 1.387744 -0.206701 -0.204906 -2.141190 0.366566 -6.528614 -1.227142 -1.648147 2.661224 -45.717643 4.271198 0.000000 0.000000 0.000000 0.000000 0.000000 0.000000 -0.000000 0.000000 0.000000 -0.000000 0.000000 0.000000 3.099214 -10.756839 3.706697 -1.650241 5.485206 -1.719583 0.000000 0.000000 0.000000 0.000000 0.000000 0.000000 3.453851 1.277069 -59.462253 -0.420451 -2.628374 -0.408105 -54.869435 -4.372498 56.659583 0.000000 0.000000 0.000000 4.417380 1.502859 -59.325862 -0.453615 -2.672577 -0.276811 -0.000000 0.000000 0.000000 0.000000 0.000000 0.000000
84.313014 79.169887 342.784607 -0.448460 -1.707186 59.371454 1.697535 0.483720 -59.385302 -0.000000 0.000000 0.000000 -0.000000 0.000000 0.000000 0.000000 0.000000 0.000000 0.914928 1.514607 -0.226628 -0.166207 -2.431485 0.423407 -8.257816 -1.631010 -2.133358 5.943130 -46.854091 4.474873 0.000000 0.000000 0.000000 0.000000 0.000000 0.000000 -0.000000 0.000000 0.000000 -0.000000 0.000000 0.000000 2.319123 -9.318784 3.135475 -0.690620 5.575468 -1.862315 0.000000 0.000000 0.000000 0.000000 0.000000 0.000000 3.191983 1.233855 -59.303637 -0.404766 -2.703207 -0.462433 -48.617972 -1.040892 49.180323 0.000000 0.000000 0.000000 4.034150 1.463139 -59.164619 -0.357771 -2.507869 -0.268218 -0.000000 0.000000 0.000000 0.000000 0.000000 0.000000
84.345368 79.196122 342.646542 -0.380727 -1.478201 59.241077 1.465002 0.428729 -59.251470 -0.000000 0.000000 0.000000 -0.823995 -0.171321 -0.066874 0.000000 0.000000 0.000000 1.019547 1.522855 -0.235259 -0.368882 -2.429427 0.421733 -6.743048 -1.912403 -2.141839 5.694129 -37.307277 3.552644 0.000000 0.000000 0.000000 0.000000 0.000000 0.000000 -0.000000 0.000000 0.000000 -0.000000 0.000000 0.000000 1.872655 -9.148509 3.034854 2.015029 5.595102 -2.331649 0.000000 0.000000 0.000000 0.000000 0.000000 0.000000 2.752465 1.139496 -59.180743 -0.309489 -2.472974 -0.444645 -35.398606 3.009324 33.885806 0.000000 0.000000 0.000000 3.562939 1.393669 -59.034938 -0.252774 -2.295075 -0.254963 -0.000000 0.000000 0.000000 0.000000 0.000000 0.000000
84.372465 79.206644 342.595799 -0.320959 -1.359136 59.094165 1.331038 0.422633 -59.102881 -0.000000 0.000000 0.000000 -0.988779 -0.273364 -0.124320 0.000000 0.000000 0.000000 1.044872 1.502407 -0.234784 -0.464514 -2.277822 0.390284 -5.291985 -2.905432 -2.448379 5.899237 -39.068081 3.508673 0.000000 0.000000 0.000000 0.000000 0.000000 0.000000 -0.000000 0.000000 0.000000 -0.000000 0.000000 0.000000 1.633136 -9.181353 3.022343 3.260283 5.521559 -2.518811 0.000000 0.000000 0.000000 0.000000 0.000000 0.000000 2.447103 1.105706 -59.042526 -0.180937 -2.099498 -0.362268 -17.017857 2.524397 12.846181 0.000000 0.000000 0.000000 3.316903 1.423555 -58.881893 -0.170080 -2.217086 -0.256277 -0.000000 0.000000 0.000000 0.000000 0.000000 0.000000
84.412119 79.220758 342.570221 -0.247059 -1.283768 59.016538 1.227807 0.449008 -59.024117 -0.000000 0.000000 0.000000 -1.085793 -0.334834 -0.159232 0.000000 0.000000 0.000000 1.163483 1.501475 -0.243385 -1.157495 -1.506095 0.212924 -3.718120 -5.305613 -3.073523 6.510026 -22.246429 2.328560 0.000000 0.000000 0.000000 0.000000 0.000000 0.000000 -0.000000 0.000000 0.000000 -0.000000 0.000000 0.000000 1.600546 -8.726518 2.869864 2.967050 4.549703 -2.115333 0.000000 0.000000 0.000000 0.000000 0.000000 0.000000 2.143359 1.115641 -58.977236 0.099342 -1.128096 -0.058404 -12.449986 -0.359281 5.297661 0.000000 0.000000 0.000000 3.122000 1.491975 -58.797838 -0.089810 -2.160221 -0.260059 -0.000000 0.000000 0.000000 0.000000 0.000000 0.000000
84.413910 79.228270 342.668019 -0.240102 -1.380447 58.942737 1.306469 0.506413 -58.951403 -0.000000 0.000000 0.000000 -1.141573 -0.309901 -0.140390 0.000000 0.000000 0.000000 1.327383 1.540154 -0.259941 -1.320864 -1.545749 0.224279 -2.596956 -9.166684 -4.883277 5.280234 -7.759804 3.204072 0.000000 0.000000 0.000000 0.000000 0.000000 0.000000 -0.000000 0.000000 0.000000 -0.000000 0.000000 0.000000 2.513754 -9.481039 3.209532 3.028544 4.143673 -2.104995 0.000000 0.000000 0.000000 0.000000 0.000000 0.000000 2.044984 1.158963 -58.916775 0.177530 -0.969325 -0.043859 -9.379252 -2.650074 -0.181902 0.000000 0.000000 0.000000 3.363635 1.634818 -58.710635 -0.104906 -2.343633 -0.281357 -0.000000 0.000000 0.000000 0.000000 0.000000 0.000000
84.478607 79.227159 342.676346 -0.138689 -1.351139 58.899859 1.228618 0.579100 -58.907704 -0.000000 0.000000 0.000000 -1.077418 -0.317898 -0.148701 0.000000 0.000000 0.000000 1.545037 1.511222 -0.272567 -1.538371 -1.518007 0.231808 -0.252639 -9.306569 -4.533199 4.933351 3.687461 0.748250 0.000000 0.000000 0.000000 0.000000 0.000000 0.000000 -0.000000 0.000000 0.000000 -0.000000 0.000000 0.000000 2.538512 -8.459677 2.867459 0.650849 3.318001 -1.396609 0.000000 0.000000 0.000000 0.000000 0.000000 0.000000 1.771904 1.246689 -58.887208 0.290817 -0.810055 -0.027096 -21.673444 -1.299434 9.265962 0.000000 0.000000 0.000000 3.260664 1.802474 -58.652828 -0.013099 -2.371444 -0.297383 -0.000000 0.000000 0.000000 0.000000 0.000000 0.000000
84.554771 79.211605 342.680475 0.002133 -1.316385 58.787393 1.124786 0.683951 -58.794083 -0.000000 0.000000 0.000000 -0.896313 -0.480389 -0.262146 0.000000 0.000000 0.000000 1.815347 1.402079 -0.279233 -1.809041 -1.410207 0.234753 5.094933 -0.591241 0.137289 1.333051 -1.870391 -4.126580 0.000000 0.000000 0.000000 0.000000 0.000000 0.000000 -0.000000 0.000000 0.000000 0.664902 0.425214 -0.188965 1.860503 -8.080746 2.799551 -1.445461 3.301773 -1.057016 0.000000 0.000000 0.000000 0.000000 0.000000 0.000000 1.124786 0.683951 -58.794083 -0.000000 0.000000 0.000000 -28.256298 -1.088181 15.154031 0.000000 0.000000 0.000000 3.130709 2.001590 -58.526679 -0.732053 -2.086115 -0.315724 0.808773 -0.307929 -0.026539 0.000000 0.000000 0.000000
84.637966 79.184596 342.673851 0.162447 -1.273819 58.694749 1.004014 0.800638 -58.699958 -0.000000 0.000000 0.000000 -0.423893 -0.632585 -0.381303 0.000000 0.000000 0.000000 2.048221 1.278719 -0.280952 -2.413666 -2.420331 0.440229 7.773921 4.521380 1.599210 -2.119952 -8.031524 -5.420334 0.000000 0.000000 0.000000 0.000000 0.000000 0.000000 0.770887 -0.295819 -0.258968 0.048932 0.646776 0.060543 1.558967 -7.675624 2.681441 -2.925942 2.614587 -0.627420 0.000000 0.000000 0.000000 0.000000 0.000000 0.000000 1.004014 0.800638 -58.699958 -0.000000 0.000000 0.000000 -25.598130 -0.570074 13.978772 0.000000 0.000000 0.000000 2.951930 2.184796 -58.425160 -0.653757 -2.036011 -0.317483 1.022891 -0.209395 -0.829163 0.000000 0.000000 0.000000
84.691536 79.151807 342.684586 0.299037 -1.271164 58.509107 0.927802 0.918979 -58.513231 -0.000000 0.000000 0.000000 0.369704 -1.015823 -0.657475 0.000000 0.000000 0.000000 2.233651 1.194296 -0.283687 -2.137393 -2.805072 0.558985 9.275142 11.720261 4.115905 -6.448612 -19.617211 -8.437700 0.000000 0.000000 0.000000 0.000000 0.000000 0.000000 0.963554 -0.356933 -0.321650 0.098459 0.621071 0.103334 1.345913 -7.532323 2.681038 -2.676644 2.439055 -0.614059 0.000000 0.000000 0.000000 0.000000 0.000000 0.000000 0.927802 0.918979 -58.513231 -0.000000 0.000000 0.000000 -28.795391 0.280340 19.020334 0.000000 0.000000 0.000000 2.856668 2.352415 -58.234573 -0.625115 -2.090200 -0.335959 1.093855 -0.128937 -1.033002 0.000000 0.000000 0.000000
